# xmcd CD database file
#
# Track frame offsets:
#	150
#	14203
#	31765
#	49118
#	64780
#	82573
#	101835
#	122475
#	137638
#	152428
#	172045
#	185763
#	201443
#	219068
#	238843
#
# Disc length: 3392 seconds
#
# Revision: 0
# Processed by: cddbd v1.4PL0 Copyright (c) Steve Scherf et al.
# Submitted via: Feurio! 1.65.5ß - http://www.feurio.com
#
DISCID=c90d3e0f
DTITLE=Reba McEntire - Greatest Hits Volume III
DYEAR=2001
DGENRE=Country
TTITLE0=I'm A Survivor
TTITLE1=Forever Young
TTITLE2=The Heart Is A Lonely Hunter
TTITLE3=And Still
TTITLE4=If You See Him, If You See Her
TTITLE5=The Night The Lights Went Out In Georgia
TTITLE6=Fallin' Out Of Love
TTITLE7=The Heart Won't Lie
TTITLE8=Take It Back
TTITLE9=She Thinks His Name Was John
TTITLE10=The Fear Of Being Alone
TTITLE11=Why Haven't I Heard From You
TTITLE12=One Honest Heart
TTITLE13=Myself Without You
TTITLE14=Sweet Music Man
EXTD=(c)2001 MCA USA\r\n
EXTT0=
EXTT1=
EXTT2=
EXTT3=
EXTT4=
EXTT5=
EXTT6=
EXTT7=
EXTT8=
EXTT9=
EXTT10=
EXTT11=
EXTT12=
EXTT13=
EXTT14=
PLAYORDER=
